<svg xmlns="http://www.w3.org/2000/svg" viewBox="0 0 298.5 214"><defs><style>.cls-1{fill:#fff;}</style></defs><g id="Layer_2" data-name="Layer 2"><g id="Layer_1-2" data-name="Layer 1"><path class="cls-1" d="M30,0h7a0,0,0,0,1,0,0V184A30,30,0,0,1,7,214H0a0,0,0,0,1,0,0V30A30,30,0,0,1,30,0Z"/><rect class="cls-1" x="37" width="97.14" height="37"/><rect class="cls-1" x="13.43" y="76" width="97.14" height="37"/><rect class="cls-1" x="174" y="76" width="97.14" height="37"/><path class="cls-1" d="M146,0h7a30,30,0,0,1,30,30V184a30,30,0,0,1-30,30h-7a0,0,0,0,1,0,0V0A0,0,0,0,1,146,0Z" transform="translate(329 214) rotate(180)"/><path class="cls-1" d="M261.5,0h7a30,30,0,0,1,30,30V184a30,30,0,0,1-30,30h-7a0,0,0,0,1,0,0V0A0,0,0,0,1,261.5,0Z"/></g></g></svg>